<svg width="200" height="40" viewBox="0 0 200 40" fill="none" xmlns="http://www.w3.org/2000/svg">
<mask id="mask0" mask-type="alpha" maskUnits="userSpaceOnUse" x="184" y="10" width="16" height="25">
<path fill-rule="evenodd" clip-rule="evenodd" d="M184.227 10.4281H200V34.5728H184.227V10.4281Z" fill="white"/>
</mask>
<g mask="url(#mask0)">
<path fill-rule="evenodd" clip-rule="evenodd" d="M200 28.4446C199.785 29.2746 199.547 30.0986 199.053 30.8146C197.408 33.1986 195.173 34.5276 192.239 34.5716C188.805 34.6236 186.266 33.0036 184.31 30.3016C184.186 30.1306 184.188 30.0256 184.396 29.9256C185.509 29.3936 186.62 28.8586 187.725 28.3086C187.981 28.1806 188.117 28.3156 188.28 28.4656C189.141 29.2526 190.106 29.8676 191.274 30.0496C192.766 30.2836 194.136 30.0136 195.229 28.8726C196.02 28.0476 196.022 26.9366 195.26 26.0846C194.489 25.2236 193.492 24.7166 192.454 24.2876C190.779 23.5936 189.112 22.9016 187.583 21.8986C183.881 19.4716 184.425 14.5706 187.135 12.2846C189.614 10.1916 193.382 9.7586 196.57 11.5506C197.616 12.1376 198.602 12.8096 199.535 13.5606C199.737 13.7236 199.787 13.8376 199.565 14.0276C198.641 14.8236 197.72 15.6236 196.811 16.4376C196.607 16.6206 196.465 16.6096 196.257 16.4636C195.607 16.0066 194.95 15.5566 194.218 15.2456C193.034 14.7436 191.811 14.6916 190.604 15.1116C189.237 15.5876 188.914 17.1706 189.944 18.1906C190.683 18.9226 191.608 19.3576 192.553 19.7496C194.018 20.3566 195.48 20.9606 196.812 21.8466C198.415 22.9156 199.59 24.2756 199.954 26.2256C199.961 26.2616 199.984 26.2956 200 26.3296V28.4446Z" fill="#7E4E99"/>
</g>
<path fill-rule="evenodd" clip-rule="evenodd" d="M131.859 0C131.863 0.176 131.87 0.352 131.87 0.528C131.871 12.11 131.871 23.692 131.871 35.274C131.871 35.375 131.863 35.477 131.871 35.576C131.893 35.849 131.777 35.963 131.5 35.962C130.128 35.955 128.755 35.955 127.383 35.962C127.106 35.963 126.989 35.849 127.012 35.576C127.02 35.488 127.013 35.4 127.013 35.312V0.49C127.013 0.327 127.02 0.163 127.024 0H131.859Z" fill="#7E4E99"/>
<path fill-rule="evenodd" clip-rule="evenodd" d="M49.097 19.8967H55.437C55.537 19.8967 55.638 19.8947 55.739 19.8957C55.915 19.8977 55.973 19.8227 55.886 19.6627C55.76 19.4297 55.638 19.1957 55.499 18.9707C53.877 16.3417 51.583 15.0307 48.438 15.2867C45.597 15.5177 43.651 16.9937 42.376 19.4657C42.164 19.8777 42.178 19.8957 42.645 19.8957C44.795 19.8967 46.947 19.8967 49.097 19.8967ZM51.361 23.8307C48.301 23.8307 45.243 23.8297 42.184 23.8307C41.672 23.8307 41.659 23.8467 41.773 24.3377C42.062 25.5787 42.522 26.7457 43.342 27.7357C44.507 29.1397 46.034 29.9757 47.8 30.3027C51.087 30.9127 53.828 29.8787 56.013 27.3647C56.218 27.1297 56.35 27.1097 56.596 27.2997C57.542 28.0307 58.505 28.7397 59.459 29.4597C59.836 29.7457 59.843 29.7737 59.546 30.1357C57.374 32.7897 54.597 34.3597 51.19 34.7977C48.916 35.0897 46.667 34.9737 44.556 34.0457C40.451 32.2417 38.012 29.1017 37.346 24.6427C36.964 22.0837 37.265 19.5967 38.514 17.3137C40.453 13.7667 43.351 11.4377 47.437 10.8747C51.132 10.3647 54.41 11.3287 57.179 13.9067C59.639 16.1977 60.858 19.0427 61.084 22.3557C61.109 22.7187 61.126 23.0837 61.149 23.4477C61.166 23.7227 61.032 23.8387 60.764 23.8297C60.651 23.8247 60.537 23.8297 60.424 23.8297C57.403 23.8307 54.382 23.8307 51.361 23.8307Z" fill="#7E4E99"/>
<path fill-rule="evenodd" clip-rule="evenodd" d="M149.575 19.5295H156.071C156.287 19.5295 156.512 19.5515 156.326 19.2155C155.668 18.0235 154.88 16.9445 153.751 16.1495C151.877 14.8305 149.8 14.6655 147.645 15.1485C145.415 15.6495 143.915 17.0905 142.89 19.0785C142.662 19.5215 142.667 19.5285 143.154 19.5295H149.575ZM151.878 23.4655H142.662C142.147 23.4655 142.149 23.4665 142.259 23.9645C142.579 25.4165 143.137 26.7655 144.211 27.8185C145.667 29.2465 147.434 30.0085 149.487 30.1135C151.998 30.2405 154.128 29.3975 155.926 27.6675C156.007 27.5895 156.086 27.5075 156.163 27.4245C156.793 26.7495 156.795 26.7475 157.55 27.3135C158.375 27.9335 159.191 28.5645 160.021 29.1775C160.252 29.3485 160.298 29.4795 160.1 29.7225C157.809 32.5385 154.877 34.1555 151.253 34.5035C149.155 34.7045 147.083 34.5835 145.134 33.7465C141.154 32.0375 138.682 29.0495 137.909 24.7695C137.235 21.0375 138.039 17.6325 140.523 14.7095C142.701 12.1475 145.441 10.6885 148.846 10.4375C154.209 10.0415 158.675 13.2915 160.563 17.6465C161.299 19.3425 161.602 21.1355 161.624 22.9795C161.63 23.4455 161.608 23.4645 161.131 23.4645C158.047 23.4655 154.962 23.4655 151.878 23.4655Z" fill="#7E4E99"/>
<mask id="mask1" mask-type="alpha" maskUnits="userSpaceOnUse" x="0" y="10" width="35" height="25">
<path fill-rule="evenodd" clip-rule="evenodd" d="M0 10.5427H34.5709V34.7892H0V10.5427Z" fill="white"/>
</mask>
<g mask="url(#mask1)">
<path fill-rule="evenodd" clip-rule="evenodd" d="M10.9876 25.2561C11.4036 24.2701 11.8196 23.2871 12.2336 22.3041C13.8506 18.4641 15.4666 14.6241 17.0866 10.7851C17.1266 10.6891 17.1316 10.5261 17.2756 10.5441C17.3976 10.5611 17.4056 10.7161 17.4476 10.8171C19.3536 15.3271 21.2586 19.8381 23.1626 24.3491C23.3076 24.6951 23.4566 25.0401 23.6466 25.4901C23.8846 25.0051 24.0896 24.5991 24.2836 24.1891C25.4526 21.7351 26.6176 19.2781 27.7856 16.8231C28.5746 15.1631 29.3776 13.5101 30.1486 11.8421C30.3186 11.4751 30.5386 11.3541 30.9306 11.3621C32.0126 11.3861 33.0956 11.3691 34.1786 11.3711C34.6316 11.3721 34.6476 11.4031 34.4516 11.8131C32.6506 15.5691 30.8486 19.3261 29.0516 23.0851C27.2436 26.8661 25.4396 30.6501 23.6336 34.4321C23.6176 34.4651 23.6036 34.5011 23.5846 34.5331C23.5266 34.6271 23.5116 34.7861 23.3896 34.7891C23.2296 34.7941 23.2326 34.6161 23.1866 34.5091C21.2886 29.9951 19.3916 25.4821 17.4956 20.9671C17.4756 20.9211 17.4626 20.8711 17.4386 20.8271C17.3946 20.7401 17.3826 20.6011 17.2726 20.5941C17.1266 20.5851 17.1266 20.7441 17.0856 20.8411C15.1846 25.2991 13.2866 29.7571 11.3876 34.2161C11.3536 34.2971 11.3236 34.3801 11.2876 34.4601C11.2576 34.5271 11.2446 34.6191 11.1526 34.6211C11.0616 34.6221 11.0396 34.5301 11.0076 34.4661C10.7776 34.0031 10.5476 33.5411 10.3236 33.0761C9.1006 30.5351 7.8826 27.9931 6.6596 25.4521C4.7126 21.4031 2.7626 17.3551 0.8146 13.3051C0.5636 12.7831 0.3216 12.2581 0.0636 11.7391C-0.0674 11.4761 0.0016 11.3691 0.2916 11.3701C1.4876 11.3741 2.6836 11.3751 3.8796 11.3691C4.1166 11.3681 4.2376 11.4781 4.3366 11.6841C5.7346 14.5871 7.1396 17.4861 8.5436 20.3871C9.2776 21.9051 10.0096 23.4251 10.7476 24.9421C10.7996 25.0491 10.8206 25.1851 10.9876 25.2561Z" fill="#7E4E99"/>
</g>
<path fill-rule="evenodd" clip-rule="evenodd" d="M80.6575 7.2737C79.9325 7.2637 79.2155 7.2937 78.5055 7.3977C74.3205 8.0147 70.8635 9.9397 68.2395 13.2587C65.5735 16.6317 64.5085 20.5017 65.0405 24.7627C65.5115 28.5447 67.2125 31.7207 70.0435 34.2767C72.7575 36.7277 75.9575 38.0747 79.5955 38.3187C82.8315 38.5367 85.8725 37.8127 88.6785 36.1677C90.4795 35.1107 92.0385 33.7747 93.2695 32.0787C93.6075 31.6117 93.9295 31.5907 94.2795 32.0517C94.9035 32.8767 95.5875 33.6437 96.3695 34.3267C99.9815 37.4747 104.188 38.7857 108.921 38.2217C112.843 37.7557 116.161 35.9997 118.78 33.0187C121.864 29.5087 123.117 25.3937 122.53 20.7777C122.002 16.6137 120.014 13.2057 116.702 10.6347C112.587 7.4417 107.931 6.5357 102.904 7.7917C99.3705 8.6747 96.4925 10.6397 94.2755 13.5477C93.9455 13.9817 93.6415 13.9807 93.3025 13.5547C93.0355 13.2207 92.7845 12.8717 92.4955 12.5577C89.3075 9.0947 85.3615 7.3307 80.6575 7.2737ZM106.899 39.3487C101.732 39.2617 97.4375 37.2867 94.0435 33.3737C93.8635 33.1677 93.7565 33.1207 93.5515 33.3617C90.7275 36.6777 87.1445 38.6767 82.8385 39.2127C77.9405 39.8227 73.5225 38.5667 69.7315 35.3417C66.7245 32.7857 64.8185 29.5587 64.1505 25.6657C63.3005 20.7067 64.4975 16.2417 67.6835 12.3497C70.4165 9.0127 73.9715 7.0637 78.2255 6.4157C81.4575 5.9217 84.5715 6.4017 87.5545 7.7247C89.9075 8.7677 91.9065 10.2877 93.5585 12.2567C93.7625 12.5007 93.8555 12.4547 94.0385 12.2407C96.9055 8.8907 100.531 6.9137 104.903 6.3777C109.496 5.8157 113.661 6.9727 117.301 9.8157C120.886 12.6157 123.027 16.3037 123.557 20.8427C124.153 25.9337 122.637 30.3657 119.145 34.1067C116.43 37.0137 113.054 38.6697 109.131 39.2327C108.394 39.3377 107.651 39.3537 106.899 39.3487Z" fill="#B1D134"/>
<path fill-rule="evenodd" clip-rule="evenodd" d="M172.592 15.4993C172.868 15.0693 173.136 14.6353 173.421 14.2123C174.034 13.3023 174.701 12.4383 175.552 11.7293C176.454 10.9783 177.505 10.6153 178.651 10.4593C179.54 10.3383 180.404 10.4613 181.269 10.6513C181.549 10.7143 181.648 10.8123 181.553 11.1133C181.123 12.4823 180.707 13.8553 180.301 15.2303C180.213 15.5303 180.087 15.6313 179.762 15.5613C178.834 15.3593 177.9 15.2783 176.957 15.5073C174.784 16.0323 173.103 17.8433 172.737 20.0493C172.652 20.5613 172.648 21.0753 172.648 21.5913C172.646 25.5053 172.647 29.4203 172.646 33.3343C172.646 33.9583 172.645 33.9593 172.013 33.9593C170.741 33.9603 169.47 33.9513 168.199 33.9653C167.86 33.9693 167.736 33.8603 167.737 33.5113C167.743 26.1733 167.743 18.8353 167.737 11.4973C167.736 11.1403 167.875 11.0493 168.207 11.0523C169.49 11.0663 170.775 11.0663 172.058 11.0523C172.398 11.0483 172.524 11.1533 172.519 11.5043C172.502 12.6993 172.513 13.8953 172.513 15.0913V15.4863C172.539 15.4903 172.566 15.4953 172.592 15.4993Z" fill="#7E4E99"/>
<path fill-rule="evenodd" clip-rule="evenodd" d="M118.326 22.8674C118.174 27.4764 116.193 31.0594 112.134 33.3054C108.324 35.4114 104.429 35.3124 100.57 33.3144C100.241 33.1434 100.181 32.9764 100.36 32.6384C100.912 31.5924 101.442 30.5334 101.954 29.4674C102.11 29.1404 102.241 29.0724 102.562 29.2724C103.805 30.0454 105.176 30.3474 106.633 30.3284C110.117 30.2834 113.338 27.4284 113.792 23.9704C114.294 20.1384 112.19 16.7814 108.513 15.6494C106.479 15.0244 104.503 15.2774 102.649 16.3334C102.336 16.5114 102.189 16.5084 102.021 16.1654C101.492 15.0794 100.941 14.0034 100.378 12.9344C100.22 12.6354 100.291 12.5024 100.571 12.3494C102.506 11.2914 104.575 10.7634 106.772 10.8524C109.664 10.9694 112.22 11.9784 114.379 13.9334C116.715 16.0484 118.006 18.6874 118.321 21.8104C118.356 22.1594 118.326 22.5144 118.326 22.8674Z" fill="#7E4E99"/>
<path fill-rule="evenodd" clip-rule="evenodd" d="M81.182 34.8098C78.156 34.7648 75.491 33.7728 73.231 31.7448C70.921 29.6698 69.546 27.0858 69.305 23.9918C68.908 18.8948 71.002 15.0288 75.351 12.3988C77.27 11.2388 79.409 10.7698 81.644 10.8518C83.571 10.9228 85.389 11.4378 87.078 12.3868C87.336 12.5318 87.334 12.6638 87.215 12.8948C86.654 13.9928 86.099 15.0938 85.555 16.2018C85.419 16.4778 85.289 16.5408 85.008 16.3698C83.841 15.6548 82.548 15.3188 81.196 15.3268C79.516 15.3358 77.971 15.8338 76.638 16.8898C74.637 18.4728 73.637 20.5578 73.711 23.0978C73.821 26.8008 76.622 29.8048 80.303 30.2658C82.016 30.4808 83.609 30.1278 85.08 29.2448C85.355 29.0808 85.454 29.1338 85.584 29.3968C86.146 30.5378 86.719 31.6718 87.306 32.7988C87.448 33.0728 87.295 33.1548 87.107 33.2588C85.263 34.2738 83.298 34.8238 81.182 34.8098Z" fill="#7E4E99"/>
<path fill-rule="evenodd" clip-rule="evenodd" d="M101.379 17.3713C101.374 17.5503 101.27 17.6493 101.181 17.7513C99.8722 19.2463 98.5592 20.7373 97.2502 22.2323C95.5772 24.1433 93.9082 26.0593 92.2362 27.9713C91.0112 29.3723 89.7812 30.7693 88.5602 32.1733C88.3912 32.3673 88.3062 32.3093 88.2092 32.1183C87.5792 30.8723 86.9462 29.6263 86.3122 28.3833C86.2132 28.1903 86.2312 28.0373 86.3772 27.8703C87.7632 26.2923 89.1322 24.6993 90.5322 23.1353C90.7982 22.8383 90.7432 22.6803 90.5172 22.4243C89.1332 20.8603 87.7662 19.2823 86.3852 17.7173C86.2172 17.5273 86.1952 17.3743 86.3112 17.1493C86.9312 15.9393 87.5422 14.7253 88.1412 13.5063C88.2832 13.2153 88.3902 13.2233 88.5862 13.4493C89.7332 14.7673 90.8872 16.0813 92.0392 17.3953C92.5612 17.9913 93.0892 18.5823 93.6032 19.1843C93.7522 19.3603 93.8462 19.3433 93.9872 19.1813C95.5972 17.3303 97.2142 15.4863 98.8222 13.6363C99.2532 13.1413 99.2402 13.1343 99.5372 13.7193C100.107 14.8423 100.679 15.9623 101.248 17.0843C101.299 17.1843 101.342 17.2883 101.379 17.3713Z" fill="#B1D134"/>
</svg>
